<?xml version="1.0" ?><svg id="Capa_1" style="enable-background:new 0 0 100 100;" version="1.1" viewBox="0 0 100 100" xml:space="preserve" xmlns="http://www.w3.org/2000/svg" xmlns:xlink="http://www.w3.org/1999/xlink" fill="#64a507"><path d="M31.8,60c-0.2,0-0.3,0-0.5,0c-1.3-0.2-2.1-1.3-2.8-2.1c-0.3-0.3-0.7-0.9-1-1c-0.2-0.1-0.9,0.1-1.4,0.1  c-1,0.2-2.3,0.4-3.4-0.2c-1.1-0.7-1.6-1.9-1.9-2.9c-0.2-0.4-0.4-1.1-0.6-1.3c-0.2-0.2-0.9-0.3-1.4-0.3c-1-0.2-2.3-0.4-3.2-1.4  c-0.8-1-0.8-2.3-0.8-3.4c0-0.5,0-1.2-0.1-1.4c-0.1-0.2-0.8-0.6-1.2-0.8c-0.9-0.5-2.1-1.2-2.5-2.4c-0.4-1.2,0-2.4,0.4-3.4  c0.2-0.4,0.4-1.1,0.4-1.4c0-0.2-0.5-0.8-0.8-1.1c-0.7-0.8-1.6-1.8-1.6-3.1c0-1.3,0.9-2.3,1.6-3.1c0.3-0.3,0.8-0.9,0.8-1.1  c0-0.2-0.2-0.9-0.4-1.4c-0.4-1-0.8-2.2-0.4-3.4c0.4-1.2,1.6-1.9,2.5-2.4c0.4-0.2,1-0.6,1.2-0.8c0.1-0.2,0.1-0.9,0.1-1.4  c0-1.1,0-2.4,0.8-3.4c0.8-1,2.1-1.2,3.2-1.4c0.5-0.1,1.2-0.2,1.4-0.3c0.2-0.2,0.4-0.8,0.6-1.3c0.3-1,0.8-2.2,1.9-2.9  c1.1-0.6,2.4-0.4,3.4-0.2c0.5,0.1,1.2,0.2,1.4,0.1c0.2-0.1,0.7-0.6,1-1C29.2,9.3,30,8.3,31.3,8c1.3-0.2,2.4,0.4,3.3,1  c0.4,0.2,1,0.6,1.3,0.6s0.9-0.4,1.3-0.6c0.9-0.5,2-1.2,3.3-1c1.3,0.2,2.1,1.3,2.8,2.1c0.3,0.3,0.7,0.9,1,1c0.2,0.1,0.9,0,1.4-0.1  c1-0.2,2.3-0.4,3.4,0.2c1.1,0.6,1.6,1.9,1.9,2.9c0.2,0.4,0.4,1.1,0.6,1.3c0.2,0.2,0.9,0.3,1.4,0.3c1,0.2,2.3,0.4,3.2,1.4  c0.8,1,0.8,2.3,0.8,3.4c0,0.5,0,1.2,0.1,1.4c0.1,0.2,0.8,0.6,1.2,0.8c0.9,0.5,2.1,1.2,2.5,2.4c0.4,1.2,0,2.4-0.4,3.4  c-0.2,0.4-0.4,1.1-0.4,1.4c0,0.2,0.5,0.8,0.8,1.1c0.7,0.8,1.6,1.8,1.6,3.1c0,1.3-0.9,2.3-1.6,3.1c-0.3,0.3-0.8,0.9-0.8,1.1  c0,0.2,0.2,0.9,0.4,1.4c0.4,1,0.8,2.2,0.4,3.4c-0.4,1.2-1.6,1.9-2.5,2.4c-0.4,0.2-1,0.6-1.2,0.8c-0.1,0.2-0.1,0.9-0.1,1.4  c0,1.1,0,2.4-0.8,3.4c-0.8,1-2.1,1.2-3.2,1.4c-0.5,0.1-1.2,0.2-1.4,0.3c-0.2,0.2-0.4,0.8-0.6,1.3c-0.3,1-0.8,2.2-1.9,2.9  c-1.1,0.6-2.4,0.4-3.4,0.2c-0.5-0.1-1.2-0.2-1.4-0.1c-0.2,0.1-0.7,0.7-1,1c-0.7,0.8-1.5,1.8-2.8,2.1c-1.3,0.2-2.4-0.4-3.3-1  c-0.4-0.2-1-0.6-1.3-0.6c-0.3,0-0.9,0.4-1.3,0.6C33.8,59.5,32.9,60,31.8,60z M27.3,53.9c0.4,0,0.8,0.1,1.3,0.2  c1,0.4,1.7,1.2,2.3,1.9c0.3,0.4,0.8,1,1,1c0.2,0,0.8-0.4,1.2-0.6c0.8-0.5,1.8-1,2.8-1c1.1,0,2,0.6,2.8,1c0.4,0.2,1,0.6,1.2,0.6  c0,0,0,0,0,0c0.2-0.1,0.7-0.7,1-1c0.6-0.7,1.3-1.6,2.3-1.9c1-0.4,2.1-0.2,3,0c0.4,0.1,1.2,0.2,1.4,0.1c0.2-0.1,0.4-0.8,0.6-1.3  c0.3-0.9,0.7-1.9,1.5-2.6c0.8-0.7,1.9-0.9,2.8-1c0.4-0.1,1.2-0.2,1.4-0.3c0.1-0.2,0.1-0.9,0.1-1.4c0-0.9,0-2,0.5-2.9  c0.5-0.9,1.5-1.4,2.3-1.9c0.4-0.2,1.1-0.6,1.2-0.8c0-0.2-0.2-0.9-0.4-1.3c-0.3-0.9-0.7-1.9-0.5-3c0.2-1,0.9-1.8,1.5-2.5  c0.3-0.3,0.8-0.9,0.8-1.2c0-0.2-0.6-0.8-0.8-1.2c-0.6-0.7-1.3-1.5-1.5-2.5c-0.2-1.1,0.2-2.1,0.5-3c0.2-0.4,0.4-1.1,0.4-1.3  c-0.1-0.2-0.8-0.6-1.2-0.8c-0.8-0.5-1.8-1-2.3-1.9c-0.5-0.9-0.5-2-0.5-2.9c0-0.5,0-1.2-0.1-1.4c-0.2-0.1-0.9-0.3-1.4-0.3  c-0.9-0.2-2-0.3-2.8-1c-0.8-0.7-1.2-1.7-1.5-2.6c-0.1-0.4-0.4-1.1-0.6-1.3c-0.2-0.1-0.9,0.1-1.4,0.2c-0.9,0.2-2,0.4-3,0  c-1-0.4-1.7-1.2-2.3-1.9c-0.3-0.4-0.8-1-1-1c-0.2,0-0.8,0.4-1.2,0.6c-0.8,0.5-1.8,1-2.8,1s-2-0.6-2.8-1c-0.4-0.2-1-0.6-1.2-0.6  c0,0,0,0,0,0c-0.2,0.1-0.7,0.7-1,1c-0.6,0.7-1.3,1.6-2.3,1.9c-1,0.4-2.1,0.2-3,0c-0.4-0.1-1.2-0.2-1.4-0.1c-0.2,0.1-0.4,0.8-0.6,1.3  C23.3,16,23,17,22.2,17.6c-0.8,0.7-1.9,0.9-2.8,1c-0.4,0.1-1.2,0.2-1.4,0.3c-0.1,0.2-0.1,0.9-0.1,1.4c0,0.9,0,2-0.5,2.9  c-0.5,0.9-1.5,1.4-2.3,1.9c-0.4,0.2-1.1,0.6-1.2,0.8c0,0.2,0.2,0.9,0.4,1.3c0.3,0.9,0.7,1.9,0.5,3c-0.2,1-0.9,1.8-1.5,2.5  c-0.3,0.3-0.8,0.9-0.8,1.2c0,0.2,0.6,0.8,0.8,1.2c0.6,0.7,1.3,1.5,1.5,2.5c0.2,1.1-0.2,2.1-0.5,3c-0.2,0.4-0.4,1.1-0.4,1.3  c0.1,0.2,0.8,0.6,1.2,0.8c0.8,0.5,1.8,1,2.3,1.9c0.5,0.9,0.5,2,0.5,2.9c0,0.5,0,1.2,0.1,1.4c0.2,0.1,0.9,0.3,1.4,0.3  c0.9,0.2,2,0.3,2.8,1c0.8,0.7,1.2,1.7,1.5,2.6c0.1,0.4,0.4,1.1,0.6,1.3c0.2,0.1,0.9-0.1,1.4-0.1C26.1,54,26.7,53.9,27.3,53.9z"/><path d="M35.9,90c-0.8,0-1.5-0.7-1.5-1.5V34c0-0.8,0.7-1.5,1.5-1.5s1.5,0.7,1.5,1.5v54.5C37.4,89.3,36.7,90,35.9,90z"/><path d="M35.9,48.6c-0.4,0-0.8-0.2-1.1-0.5c-0.6-0.6-0.5-1.6,0.1-2.1l12.3-11.3c0.6-0.6,1.6-0.5,2.1,0.1c0.6,0.6,0.5,1.6-0.1,2.1  L36.9,48.2C36.6,48.5,36.3,48.6,35.9,48.6z"/><path d="M35.9,53.6c-0.4,0-0.7-0.1-1-0.4l-9.7-8.7c-0.6-0.6-0.7-1.5-0.1-2.1c0.6-0.6,1.5-0.7,2.1-0.1l9.7,8.7  c0.6,0.6,0.7,1.5,0.1,2.1C36.7,53.5,36.3,53.6,35.9,53.6z"/><path d="M66.3,74.4c-7.4,0-13.4-6-13.4-13.4s6-13.4,13.4-13.4s13.4,6,13.4,13.4S73.7,74.4,66.3,74.4z M66.3,50.6  c-5.8,0-10.4,4.7-10.4,10.4s4.7,10.4,10.4,10.4S76.7,66.7,76.7,61S72,50.6,66.3,50.6z"/><path d="M66.3,90c-0.8,0-1.5-0.7-1.5-1.5V61.2c0-0.8,0.7-1.5,1.5-1.5s1.5,0.7,1.5,1.5v27.2C67.8,89.3,67.1,90,66.3,90z"/><path d="M66.3,69.1c-0.4,0-0.7-0.1-1-0.4L59.1,63c-0.6-0.6-0.6-1.5-0.1-2.1c0.6-0.6,1.5-0.6,2.1-0.1l6.1,5.7  c0.6,0.6,0.6,1.5,0.1,2.1C67.1,68.9,66.7,69.1,66.3,69.1z"/><path d="M66.3,71.6c-0.4,0-0.8-0.2-1.1-0.5c-0.6-0.6-0.5-1.6,0.1-2.1l4.9-4.3c0.6-0.6,1.6-0.5,2.1,0.1s0.5,1.6-0.1,2.1l-4.9,4.3  C67,71.4,66.6,71.6,66.3,71.6z"/><path d="M76.6,91.4H23.4c-0.8,0-1.5-0.7-1.5-1.5s0.7-1.5,1.5-1.5h53.2c0.8,0,1.5,0.7,1.5,1.5S77.4,91.4,76.6,91.4z"/><path d="M77.2,34.2c-4.9,0-8.8-4-8.8-8.8s4-8.8,8.8-8.8s8.8,4,8.8,8.8S82,34.2,77.2,34.2z M77.2,19.6c-3.2,0-5.8,2.6-5.8,5.8  c0,3.2,2.6,5.8,5.8,5.8s5.8-2.6,5.8-5.8C83,22.2,80.4,19.6,77.2,19.6z"/><path d="M71.1,17.1c-0.2,0-0.5-0.1-0.6-0.3c-0.2-0.3-0.1-0.8,0.2-1c1.9-1.3,4.2-2,6.5-2c0.4,0,0.8,0.3,0.8,0.8s-0.3,0.8-0.8,0.8  c-2,0-4,0.6-5.6,1.7C71.4,17.1,71.2,17.1,71.1,17.1z"/><path d="M74.1,36.5c-0.1,0-0.1,0-0.2,0c-4.9-1.4-8.4-6-8.4-11.1c0-2.3,0.7-4.5,1.9-6.4c0.2-0.3,0.7-0.4,1-0.2c0.3,0.2,0.4,0.7,0.2,1  c-1.1,1.6-1.7,3.6-1.7,5.6c0,4.5,3,8.4,7.3,9.7c0.4,0.1,0.6,0.5,0.5,0.9C74.7,36.3,74.4,36.5,74.1,36.5z"/><path d="M77.1,37c-0.4,0-0.8-0.3-0.8-0.8s0.3-0.8,0.8-0.8c5.6,0,10.1-4.5,10.1-10.1c0-4.5-3-8.4-7.3-9.7c-0.4-0.1-0.6-0.5-0.5-0.9  c0.1-0.4,0.5-0.6,0.9-0.5c4.9,1.4,8.3,6,8.3,11.1C88.7,31.8,83.5,37,77.1,37z"/></svg>